<?xml version="1.0" encoding="UTF-8"?>
<svg xmlns="http://www.w3.org/2000/svg" width="800" height="784" viewBox="0 0 800 784">
  <title>Luria Project Memory stacked lockup</title>
  <g transform="translate(40.00,30.00) scale(0.869565)">
    <path d="M 491.50 381.50 L 492.50 383.50 L 497.50 382.50 L 496.50 379.50 L 493.50 379.50 Z M 487.50 378.50 L 482.50 382.50 L 477.50 383.50 L 477.50 386.50 L 479.50 387.50 L 484.50 386.50 L 487.50 382.50 Z M 473.50 376.50 L 465.50 379.50 L 458.50 379.50 L 458.50 381.50 L 459.50 382.50 L 467.50 382.50 L 473.50 378.50 Z M 514.50 372.50 L 512.50 371.50 L 506.50 377.50 L 502.50 379.50 L 501.50 381.50 L 504.50 382.50 L 510.50 379.50 Z M 526.50 367.50 L 518.50 370.50 L 517.50 373.50 L 519.50 375.50 L 522.50 374.50 L 526.50 371.50 Z M 482.50 367.50 L 481.50 366.50 L 478.50 367.50 L 474.50 371.50 L 474.50 373.50 L 479.50 372.50 Z M 538.50 365.50 L 534.50 363.50 L 531.50 365.50 L 531.50 367.50 L 533.50 369.50 L 535.50 369.50 Z M 503.50 363.50 L 501.50 363.50 L 499.50 365.50 L 499.50 369.50 L 503.50 368.50 L 504.50 366.50 Z M 475.50 359.50 L 468.50 364.50 L 459.50 367.50 L 456.50 371.50 L 453.50 370.50 L 449.50 372.50 L 446.50 372.50 L 446.50 374.50 L 447.50 375.50 L 453.50 375.50 L 457.50 373.50 L 458.50 371.50 L 469.50 367.50 L 474.50 363.50 Z M 545.50 357.50 L 543.50 357.50 L 540.50 361.50 L 541.50 364.50 L 544.50 364.50 L 546.50 362.50 Z M 557.50 352.50 L 554.50 352.50 L 551.50 355.50 L 551.50 357.50 L 553.50 359.50 L 557.50 358.50 L 558.50 356.50 Z M 532.50 347.50 L 530.50 345.50 L 528.50 345.50 L 522.50 353.50 L 520.50 351.50 L 516.50 352.50 L 509.50 360.50 L 510.50 363.50 L 512.50 364.50 L 515.50 359.50 L 522.50 354.50 L 523.50 352.50 L 525.50 354.50 L 529.50 352.50 L 532.50 349.50 Z M 573.50 344.50 L 570.50 344.50 L 565.50 349.50 L 565.50 351.50 L 567.50 353.50 L 574.50 347.50 Z M 482.50 342.50 L 483.50 345.50 L 492.50 345.50 L 495.50 343.50 L 494.50 341.50 L 489.50 342.50 L 483.50 341.50 Z M 701.50 339.50 L 698.50 342.50 L 698.50 346.50 L 700.50 349.50 L 705.50 350.50 L 709.50 347.50 L 709.50 342.50 L 707.50 339.50 Z M 541.50 339.50 L 538.50 341.50 L 539.50 348.50 L 542.50 350.50 L 544.50 348.50 L 544.50 341.50 Z M 550.50 334.50 L 550.50 337.50 L 556.50 342.50 L 558.50 342.50 L 560.50 340.50 L 559.50 337.50 L 556.50 335.50 Z M 510.50 335.50 L 508.50 333.50 L 501.50 332.50 L 496.50 329.50 L 485.50 329.50 L 469.50 339.50 L 464.50 338.50 L 460.50 340.50 L 450.50 349.50 L 449.50 352.50 L 453.50 351.50 L 468.50 340.50 L 472.50 341.50 L 486.50 333.50 L 491.50 332.50 L 505.50 337.50 L 509.50 337.50 Z M 543.50 329.50 L 534.50 328.50 L 523.50 333.50 L 513.50 341.50 L 490.50 356.50 L 486.50 353.50 L 478.50 352.50 L 477.50 348.50 L 473.50 348.50 L 455.50 357.50 L 443.50 360.50 L 437.50 363.50 L 437.50 365.50 L 441.50 366.50 L 448.50 362.50 L 455.50 361.50 L 473.50 352.50 L 475.50 352.50 L 477.50 354.50 L 476.50 357.50 L 477.50 356.50 L 483.50 356.50 L 489.50 359.50 L 488.50 361.50 L 488.50 366.50 L 489.50 367.50 L 488.50 376.50 L 490.50 376.50 L 493.50 373.50 L 493.50 367.50 L 491.50 363.50 L 496.50 357.50 L 504.50 351.50 L 515.50 345.50 L 523.50 338.50 L 536.50 332.50 L 542.50 332.50 Z M 525.50 323.50 L 521.50 321.50 L 512.50 325.50 L 512.50 328.50 L 514.50 329.50 L 520.50 326.50 L 523.50 326.50 L 525.50 325.50 Z M 544.50 322.50 L 545.50 324.50 L 552.50 324.50 L 557.50 327.50 L 562.50 328.50 L 566.50 333.50 L 572.50 334.50 L 578.50 337.50 L 583.50 342.50 L 586.50 341.50 L 586.50 339.50 L 574.50 331.50 L 571.50 331.50 L 567.50 328.50 L 564.50 328.50 L 559.50 323.50 L 555.50 321.50 L 546.50 320.50 Z M 571.50 320.50 L 573.50 323.50 L 580.50 326.50 L 585.50 330.50 L 590.50 331.50 L 592.50 335.50 L 596.50 334.50 L 594.50 331.50 L 591.50 332.50 L 590.50 329.50 L 581.50 322.50 L 574.50 319.50 Z M 509.50 320.50 L 506.50 318.50 L 501.50 321.50 L 498.50 325.50 L 502.50 325.50 L 508.50 322.50 Z M 488.50 315.50 L 485.50 314.50 L 477.50 319.50 L 470.50 325.50 L 469.50 327.50 L 470.50 329.50 L 466.50 330.50 L 465.50 332.50 L 473.50 328.50 L 479.50 322.50 L 488.50 317.50 Z M 521.50 319.50 L 529.50 317.50 L 537.50 318.50 L 538.50 314.50 L 536.50 313.50 L 527.50 313.50 L 522.50 315.50 Z M 537.50 308.50 L 537.50 310.50 L 548.50 312.50 L 560.50 316.50 L 565.50 319.50 L 567.50 317.50 L 563.50 313.50 L 546.50 307.50 L 538.50 307.50 Z M 532.50 306.50 L 529.50 304.50 L 521.50 304.50 L 516.50 307.50 L 514.50 305.50 L 510.50 305.50 L 507.50 307.50 L 502.50 308.50 L 492.50 315.50 L 488.50 325.50 L 489.50 326.50 L 492.50 325.50 L 494.50 323.50 L 495.50 319.50 L 500.50 314.50 L 508.50 310.50 L 512.50 309.50 L 518.50 310.50 L 523.50 308.50 L 531.50 309.50 Z M 308.50 278.50 L 313.50 285.50 L 320.50 291.50 L 331.50 296.50 L 336.50 296.50 L 337.50 297.50 L 343.50 296.50 L 342.50 293.50 L 335.50 293.50 L 321.50 287.50 L 310.50 277.50 Z M 307.50 228.50 L 300.50 225.50 L 286.50 222.50 L 283.50 217.50 L 281.50 217.50 L 280.50 220.50 L 273.50 226.50 L 262.50 232.50 L 255.50 239.50 L 253.50 243.50 L 247.50 238.50 L 245.50 238.50 L 245.50 240.50 L 253.50 248.50 L 257.50 256.50 L 258.50 256.50 L 259.50 252.50 L 256.50 245.50 L 259.50 240.50 L 263.50 236.50 L 276.50 229.50 L 283.50 223.50 L 285.50 225.50 L 298.50 229.50 L 307.50 229.50 Z M 524.50 210.50 L 520.50 206.50 L 512.50 202.50 L 501.50 199.50 L 492.50 199.50 L 481.50 202.50 L 473.50 207.50 L 464.50 217.50 L 462.50 222.50 L 464.50 223.50 L 469.50 216.50 L 480.50 207.50 L 491.50 203.50 L 507.50 204.50 L 522.50 211.50 Z M 238.50 154.50 L 235.50 157.50 L 232.50 166.50 L 232.50 175.50 L 233.50 177.50 L 219.50 180.50 L 206.50 187.50 L 198.50 195.50 L 194.50 201.50 L 190.50 211.50 L 190.50 216.50 L 180.50 223.50 L 175.50 229.50 L 179.50 228.50 L 188.50 221.50 L 193.50 219.50 L 193.50 214.50 L 198.50 202.50 L 210.50 189.50 L 215.50 186.50 L 227.50 182.50 L 238.50 182.50 L 249.50 187.50 L 250.50 186.50 L 250.50 184.50 L 237.50 178.50 L 236.50 162.50 Z M 469.50 158.50 L 466.50 155.50 L 457.50 150.50 L 448.50 148.50 L 433.50 148.50 L 422.50 152.50 L 421.50 151.50 L 422.50 149.50 L 421.50 133.50 L 418.50 124.50 L 415.50 122.50 L 414.50 126.50 L 417.50 133.50 L 417.50 138.50 L 418.50 139.50 L 417.50 154.50 L 406.50 162.50 L 405.50 171.50 L 392.50 183.50 L 379.50 189.50 L 377.50 189.50 L 374.50 186.50 L 367.50 183.50 L 359.50 183.50 L 359.50 184.50 L 362.50 184.50 L 371.50 188.50 L 377.50 194.50 L 383.50 209.50 L 384.50 226.50 L 381.50 238.50 L 375.50 248.50 L 369.50 254.50 L 355.50 262.50 L 355.50 264.50 L 369.50 258.50 L 379.50 249.50 L 383.50 251.50 L 386.50 251.50 L 400.50 258.50 L 400.50 256.50 L 396.50 252.50 L 381.50 245.50 L 385.50 238.50 L 387.50 231.50 L 387.50 210.50 L 384.50 200.50 L 380.50 193.50 L 381.50 191.50 L 386.50 190.50 L 394.50 186.50 L 405.50 178.50 L 414.50 162.50 L 418.50 158.50 L 424.50 155.50 L 435.50 152.50 L 449.50 152.50 L 457.50 154.50 L 467.50 160.50 L 469.50 160.50 Z M 272.50 115.50 L 271.50 117.50 L 283.50 115.50 L 294.50 118.50 L 305.50 128.50 L 308.50 137.50 L 303.50 144.50 L 300.50 155.50 L 300.50 166.50 L 303.50 174.50 L 305.50 174.50 L 304.50 170.50 L 305.50 151.50 L 309.50 142.50 L 313.50 137.50 L 319.50 132.50 L 325.50 129.50 L 332.50 127.50 L 338.50 127.50 L 339.50 128.50 L 342.50 127.50 L 339.50 124.50 L 327.50 124.50 L 318.50 128.50 L 312.50 133.50 L 308.50 125.50 L 301.50 118.50 L 296.50 115.50 L 286.50 112.50 L 280.50 112.50 Z M 374.50 94.50 L 376.50 96.50 L 382.50 97.50 L 393.50 102.50 L 409.50 115.50 L 408.50 110.50 L 400.50 102.50 L 394.50 98.50 L 383.50 94.50 L 377.50 94.50 L 376.50 93.50 Z M 103.50 231.50 L 104.50 246.50 L 107.50 252.50 L 111.50 256.50 L 120.50 260.50 L 136.50 260.50 L 159.50 255.50 L 183.50 255.50 L 204.50 260.50 L 219.50 266.50 L 232.50 274.50 L 243.50 284.50 L 251.50 295.50 L 261.50 305.50 L 271.50 312.50 L 293.50 322.50 L 325.50 330.50 L 354.50 331.50 L 355.50 330.50 L 371.50 329.50 L 385.50 325.50 L 395.50 320.50 L 407.50 310.50 L 426.50 284.50 L 442.50 269.50 L 456.50 261.50 L 482.50 253.50 L 508.50 251.50 L 509.50 252.50 L 518.50 252.50 L 537.50 256.50 L 552.50 261.50 L 572.50 271.50 L 595.50 286.50 L 598.50 286.50 L 599.50 284.50 L 596.50 281.50 L 569.50 264.50 L 552.50 256.50 L 537.50 251.50 L 518.50 247.50 L 483.50 248.50 L 458.50 255.50 L 442.50 263.50 L 434.50 269.50 L 424.50 279.50 L 404.50 306.50 L 392.50 316.50 L 384.50 320.50 L 366.50 325.50 L 334.50 326.50 L 333.50 325.50 L 325.50 325.50 L 307.50 321.50 L 278.50 310.50 L 265.50 302.50 L 236.50 271.50 L 229.50 266.50 L 211.50 257.50 L 183.50 250.50 L 164.50 250.50 L 133.50 256.50 L 122.50 256.50 L 116.50 254.50 L 111.50 250.50 L 109.50 247.50 L 107.50 239.50 L 109.50 224.50 L 115.50 212.50 L 121.50 204.50 L 132.50 195.50 L 136.50 196.50 L 137.50 194.50 L 137.50 181.50 L 141.50 167.50 L 150.50 151.50 L 165.50 135.50 L 181.50 125.50 L 198.50 119.50 L 205.50 119.50 L 206.50 118.50 L 211.50 118.50 L 212.50 119.50 L 211.50 132.50 L 213.50 132.50 L 218.50 112.50 L 225.50 100.50 L 237.50 87.50 L 253.50 77.50 L 265.50 73.50 L 281.50 71.50 L 282.50 72.50 L 294.50 73.50 L 302.50 76.50 L 303.50 79.50 L 306.50 79.50 L 318.50 66.50 L 330.50 59.50 L 349.50 54.50 L 367.50 54.50 L 368.50 55.50 L 378.50 56.50 L 397.50 64.50 L 404.50 69.50 L 410.50 76.50 L 418.50 74.50 L 438.50 74.50 L 451.50 78.50 L 461.50 84.50 L 471.50 93.50 L 476.50 100.50 L 482.50 115.50 L 484.50 115.50 L 485.50 110.50 L 494.50 111.50 L 498.50 113.50 L 501.50 113.50 L 513.50 119.50 L 521.50 125.50 L 527.50 131.50 L 535.50 142.50 L 541.50 156.50 L 543.50 165.50 L 543.50 174.50 L 540.50 187.50 L 541.50 187.50 L 546.50 177.50 L 551.50 180.50 L 565.50 195.50 L 571.50 207.50 L 574.50 218.50 L 573.50 238.50 L 578.50 241.50 L 584.50 248.50 L 589.50 257.50 L 591.50 266.50 L 592.50 267.50 L 594.50 266.50 L 594.50 261.50 L 590.50 250.50 L 586.50 244.50 L 577.50 235.50 L 578.50 233.50 L 578.50 218.50 L 574.50 203.50 L 566.50 189.50 L 555.50 178.50 L 547.50 173.50 L 547.50 163.50 L 542.50 146.50 L 532.50 130.50 L 523.50 121.50 L 505.50 110.50 L 495.50 107.50 L 484.50 106.50 L 475.50 91.50 L 463.50 80.50 L 452.50 74.50 L 432.50 69.50 L 412.50 71.50 L 403.50 63.50 L 393.50 57.50 L 383.50 53.50 L 368.50 50.50 L 348.50 50.50 L 332.50 54.50 L 318.50 61.50 L 305.50 73.50 L 294.50 69.50 L 283.50 68.50 L 282.50 67.50 L 268.50 68.50 L 254.50 72.50 L 238.50 81.50 L 228.50 90.50 L 222.50 97.50 L 216.50 107.50 L 213.50 115.50 L 199.50 115.50 L 180.50 121.50 L 165.50 130.50 L 151.50 143.50 L 143.50 154.50 L 135.50 172.50 L 133.50 190.50 L 125.50 195.50 L 111.50 210.50 L 105.50 223.50 Z M 11.50 255.50 L 11.50 260.50 L 10.50 261.50 L 11.50 275.50 L 19.50 292.50 L 30.50 303.50 L 46.50 312.50 L 63.50 317.50 L 56.50 322.50 L 48.50 325.50 L 44.50 325.50 L 40.50 323.50 L 34.50 323.50 L 27.50 329.50 L 26.50 340.50 L 28.50 346.50 L 40.50 358.50 L 80.50 373.50 L 111.50 389.50 L 136.50 405.50 L 176.50 428.50 L 198.50 439.50 L 230.50 452.50 L 271.50 464.50 L 291.50 468.50 L 303.50 469.50 L 304.50 470.50 L 327.50 471.50 L 328.50 472.50 L 362.50 472.50 L 363.50 471.50 L 376.50 471.50 L 377.50 470.50 L 384.50 470.50 L 385.50 469.50 L 392.50 469.50 L 393.50 468.50 L 410.50 466.50 L 443.50 458.50 L 480.50 446.50 L 548.50 419.50 L 572.50 411.50 L 599.50 404.50 L 609.50 403.50 L 615.50 401.50 L 621.50 401.50 L 622.50 400.50 L 628.50 400.50 L 635.50 398.50 L 640.50 398.50 L 653.50 401.50 L 661.50 401.50 L 662.50 402.50 L 678.50 400.50 L 690.50 395.50 L 698.50 387.50 L 699.50 382.50 L 701.50 380.50 L 712.50 379.50 L 727.50 387.50 L 745.50 393.50 L 760.50 396.50 L 768.50 396.50 L 769.50 397.50 L 774.50 396.50 L 774.50 394.50 L 771.50 392.50 L 764.50 392.50 L 744.50 387.50 L 732.50 381.50 L 721.50 370.50 L 720.50 366.50 L 723.50 361.50 L 723.50 355.50 L 721.50 349.50 L 731.50 341.50 L 735.50 331.50 L 735.50 323.50 L 731.50 314.50 L 725.50 308.50 L 718.50 304.50 L 718.50 297.50 L 729.50 277.50 L 752.50 246.50 L 772.50 226.50 L 790.50 213.50 L 806.50 205.50 L 811.50 207.50 L 815.50 206.50 L 817.50 204.50 L 817.50 198.50 L 813.50 195.50 L 810.50 195.50 L 807.50 197.50 L 805.50 201.50 L 790.50 207.50 L 774.50 217.50 L 758.50 230.50 L 738.50 250.50 L 715.50 278.50 L 707.50 286.50 L 703.50 287.50 L 700.50 285.50 L 695.50 284.50 L 707.50 235.50 L 717.50 203.50 L 725.50 183.50 L 735.50 163.50 L 752.50 138.50 L 763.50 127.50 L 769.50 127.50 L 773.50 124.50 L 773.50 119.50 L 771.50 116.50 L 769.50 115.50 L 764.50 116.50 L 761.50 120.50 L 761.50 123.50 L 744.50 139.50 L 728.50 162.50 L 706.50 207.50 L 694.50 240.50 L 688.50 253.50 L 686.50 261.50 L 682.50 269.50 L 681.50 274.50 L 677.50 280.50 L 672.50 279.50 L 651.50 263.50 L 629.50 250.50 L 622.50 222.50 L 611.50 187.50 L 609.50 184.50 L 603.50 166.50 L 593.50 145.50 L 579.50 122.50 L 563.50 101.50 L 543.50 80.50 L 525.50 65.50 L 496.50 46.50 L 474.50 35.50 L 436.50 21.50 L 405.50 14.50 L 382.50 12.50 L 381.50 11.50 L 366.50 11.50 L 365.50 10.50 L 333.50 11.50 L 332.50 12.50 L 323.50 12.50 L 322.50 13.50 L 304.50 15.50 L 290.50 19.50 L 286.50 19.50 L 245.50 32.50 L 205.50 51.50 L 182.50 65.50 L 161.50 80.50 L 136.50 101.50 L 114.50 123.50 L 94.50 146.50 L 70.50 181.50 L 57.50 206.50 L 48.50 228.50 L 44.50 230.50 L 32.50 232.50 L 21.50 238.50 L 14.50 247.50 Z M 605.50 330.50 L 589.50 347.50 L 571.50 359.50 L 526.50 380.50 L 509.50 386.50 L 492.50 390.50 L 469.50 390.50 L 454.50 386.50 L 444.50 380.50 L 430.50 364.50 L 440.50 355.50 L 459.50 331.50 L 474.50 315.50 L 485.50 307.50 L 505.50 299.50 L 510.50 299.50 L 511.50 298.50 L 536.50 298.50 L 549.50 301.50 L 568.50 309.50 L 593.50 325.50 Z M 695.50 253.50 L 696.50 257.50 L 687.50 285.50 L 681.50 310.50 L 677.50 314.50 L 674.50 315.50 L 670.50 312.50 L 670.50 308.50 L 675.50 304.50 Z M 696.50 250.50 L 697.50 251.50 L 696.50 254.50 L 695.50 253.50 Z M 697.50 247.50 L 698.50 248.50 L 697.50 251.50 L 696.50 250.50 Z M 697.50 246.50 L 698.50 245.50 L 699.50 246.50 L 698.50 247.50 Z M 21.50 264.50 L 24.50 253.50 L 29.50 247.50 L 40.50 242.50 L 52.50 240.50 L 59.50 234.50 L 66.50 217.50 L 86.50 179.50 L 108.50 148.50 L 125.50 128.50 L 157.50 98.50 L 194.50 71.50 L 209.50 62.50 L 242.50 46.50 L 266.50 37.50 L 292.50 30.50 L 312.50 26.50 L 327.50 25.50 L 328.50 24.50 L 339.50 24.50 L 340.50 23.50 L 388.50 24.50 L 389.50 25.50 L 403.50 26.50 L 436.50 34.50 L 468.50 46.50 L 492.50 58.50 L 505.50 66.50 L 523.50 79.50 L 537.50 91.50 L 556.50 111.50 L 567.50 125.50 L 580.50 145.50 L 589.50 162.50 L 589.50 164.50 L 597.50 180.50 L 609.50 215.50 L 615.50 237.50 L 620.50 265.50 L 625.50 278.50 L 627.50 279.50 L 629.50 277.50 L 628.50 274.50 L 628.50 262.50 L 629.50 261.50 L 656.50 278.50 L 667.50 287.50 L 668.50 286.50 L 674.50 286.50 L 675.50 288.50 L 670.50 299.50 L 665.50 303.50 L 662.50 309.50 L 663.50 316.50 L 667.50 320.50 L 672.50 322.50 L 679.50 321.50 L 686.50 316.50 L 688.50 311.50 L 689.50 302.50 L 694.50 290.50 L 701.50 294.50 L 705.50 294.50 L 715.50 286.50 L 716.50 288.50 L 710.50 298.50 L 710.50 308.50 L 714.50 312.50 L 720.50 314.50 L 723.50 317.50 L 726.50 322.50 L 727.50 329.50 L 725.50 335.50 L 714.50 345.50 L 716.50 360.50 L 711.50 361.50 L 710.50 365.50 L 718.50 375.50 L 716.50 376.50 L 710.50 373.50 L 692.50 374.50 L 685.50 371.50 L 682.50 374.50 L 683.50 376.50 L 691.50 380.50 L 686.50 386.50 L 675.50 391.50 L 670.50 392.50 L 650.50 391.50 L 638.50 388.50 L 623.50 381.50 L 619.50 381.50 L 619.50 384.50 L 625.50 389.50 L 624.50 390.50 L 600.50 393.50 L 562.50 403.50 L 533.50 413.50 L 478.50 435.50 L 436.50 448.50 L 415.50 452.50 L 410.50 454.50 L 386.50 457.50 L 385.50 458.50 L 366.50 459.50 L 365.50 460.50 L 311.50 459.50 L 310.50 458.50 L 303.50 458.50 L 302.50 457.50 L 284.50 455.50 L 257.50 449.50 L 229.50 440.50 L 207.50 431.50 L 162.50 408.50 L 106.50 374.50 L 84.50 363.50 L 58.50 354.50 L 45.50 348.50 L 38.50 340.50 L 38.50 333.50 L 42.50 330.50 L 43.50 331.50 L 44.50 330.50 L 54.50 329.50 L 76.50 317.50 L 81.50 317.50 L 82.50 316.50 L 122.50 316.50 L 123.50 317.50 L 129.50 317.50 L 162.50 324.50 L 186.50 332.50 L 269.50 370.50 L 293.50 379.50 L 315.50 385.50 L 331.50 388.50 L 338.50 388.50 L 339.50 389.50 L 371.50 389.50 L 372.50 388.50 L 384.50 387.50 L 401.50 382.50 L 412.50 377.50 L 423.50 370.50 L 430.50 380.50 L 437.50 387.50 L 446.50 393.50 L 465.50 399.50 L 486.50 400.50 L 487.50 399.50 L 495.50 399.50 L 508.50 396.50 L 531.50 388.50 L 554.50 378.50 L 583.50 363.50 L 595.50 355.50 L 604.50 347.50 L 626.50 319.50 L 626.50 316.50 L 622.50 315.50 L 612.50 321.50 L 608.50 321.50 L 601.50 318.50 L 573.50 300.50 L 548.50 290.50 L 532.50 287.50 L 507.50 288.50 L 487.50 294.50 L 473.50 302.50 L 459.50 315.50 L 438.50 342.50 L 423.50 357.50 L 407.50 368.50 L 396.50 373.50 L 377.50 378.50 L 371.50 378.50 L 370.50 379.50 L 340.50 379.50 L 339.50 378.50 L 321.50 376.50 L 305.50 372.50 L 292.50 367.50 L 289.50 367.50 L 255.50 353.50 L 202.50 327.50 L 164.50 313.50 L 138.50 307.50 L 126.50 306.50 L 125.50 305.50 L 116.50 305.50 L 115.50 304.50 L 90.50 304.50 L 80.50 306.50 L 66.50 306.50 L 54.50 303.50 L 39.50 296.50 L 31.50 289.50 L 24.50 278.50 Z" fill="#111111" fill-rule="evenodd"/>
  </g>
  <g fill="#111111">
    <path d="M 191.23 584.44 V 481.84 Q 191.23 478.78 193.21 476.89 Q 195.19 475.00 198.07 475.00 Q 201.13 475.00 203.02 476.89 Q 204.91 478.78 204.91 481.84 V 584.44 Q 204.91 592.18 208.06 597.04 Q 211.21 601.90 216.07 601.90 H 220.57 Q 223.27 601.90 224.89 603.79 Q 226.51 605.68 226.51 608.74 Q 226.51 611.80 224.26 613.69 Q 222.01 615.58 218.41 615.58 H 216.07 Q 205.09 615.58 198.16 606.85 Q 191.23 598.12 191.23 584.44 Z M 338.05 523.96 V 608.56 Q 338.05 611.62 336.07 613.60 Q 334.09 615.58 331.03 615.58 Q 327.97 615.58 326.08 613.60 Q 324.19 611.62 324.19 608.56 V 602.44 Q 318.25 609.10 309.79 612.88 Q 301.33 616.66 291.43 616.66 Q 278.65 616.66 268.48 611.26 Q 258.31 605.86 252.55 595.51 Q 246.79 585.16 246.79 570.76 V 523.96 Q 246.79 521.08 248.77 519.10 Q 250.75 517.12 253.63 517.12 Q 256.69 517.12 258.67 519.10 Q 260.65 521.08 260.65 523.96 V 570.76 Q 260.65 586.78 269.56 595.15 Q 278.47 603.52 292.87 603.52 Q 301.69 603.52 308.80 600.10 Q 315.91 596.68 320.05 590.65 Q 324.19 584.62 324.19 577.24 V 523.96 Q 324.19 520.90 326.08 519.01 Q 327.97 517.12 331.03 517.12 Q 334.09 517.12 336.07 519.01 Q 338.05 520.90 338.05 523.96 Z M 434.29 523.60 Q 434.29 524.68 434.11 525.22 Q 433.39 527.74 431.86 528.64 Q 430.33 529.54 427.63 529.54 Q 426.01 529.54 422.05 529.18 Q 420.61 529.00 417.73 529.00 Q 404.23 529.00 395.68 536.20 Q 387.13 543.40 387.13 554.92 V 608.74 Q 387.13 611.98 385.33 613.78 Q 383.53 615.58 380.29 615.58 Q 377.05 615.58 375.25 613.78 Q 373.45 611.98 373.45 608.74 V 523.96 Q 373.45 520.72 375.25 518.92 Q 377.05 517.12 380.29 517.12 Q 383.53 517.12 385.33 518.92 Q 387.13 520.72 387.13 523.96 V 531.88 Q 392.35 524.32 400.45 520.18 Q 408.55 516.04 417.91 516.04 Q 425.47 516.04 429.88 518.02 Q 434.29 520.00 434.29 523.60 Z M 461.77 608.56 V 524.14 Q 461.77 521.08 463.75 519.10 Q 465.73 517.12 468.79 517.12 Q 471.85 517.12 473.74 519.10 Q 475.63 521.08 475.63 524.14 V 608.56 Q 475.63 611.62 473.74 613.60 Q 471.85 615.58 468.79 615.58 Q 465.73 615.58 463.75 613.60 Q 461.77 611.62 461.77 608.56 Z M 458.89 488.50 Q 458.89 484.18 461.77 481.48 Q 464.65 478.78 468.79 478.78 Q 472.75 478.78 475.63 481.48 Q 478.51 484.18 478.51 488.50 Q 478.51 492.64 475.63 495.52 Q 472.75 498.40 468.61 498.40 Q 464.47 498.40 461.68 495.52 Q 458.89 492.64 458.89 488.50 Z M 608.77 566.44 V 608.74 Q 608.77 611.62 606.79 613.60 Q 604.81 615.58 601.75 615.58 Q 598.69 615.58 596.71 613.69 Q 594.73 611.80 594.73 608.74 V 597.94 Q 588.43 606.58 578.71 611.53 Q 568.99 616.48 557.29 616.48 Q 543.61 616.48 532.54 609.91 Q 521.47 603.34 515.08 591.91 Q 508.69 580.48 508.69 566.44 Q 508.69 552.40 515.26 540.88 Q 521.83 529.36 533.26 522.79 Q 544.69 516.22 558.73 516.22 Q 572.77 516.22 584.20 522.79 Q 595.63 529.36 602.20 540.88 Q 608.77 552.40 608.77 566.44 Z M 595.09 566.44 Q 595.09 555.82 590.32 547.27 Q 585.55 538.72 577.27 533.77 Q 568.99 528.82 558.73 528.82 Q 548.47 528.82 540.10 533.77 Q 531.73 538.72 526.96 547.27 Q 522.19 555.82 522.19 566.44 Q 522.19 577.06 526.96 585.61 Q 531.73 594.16 540.10 599.02 Q 548.47 603.88 558.73 603.88 Q 568.99 603.88 577.27 599.02 Q 585.55 594.16 590.32 585.61 Q 595.09 577.06 595.09 566.44 Z"/>
    <path d="M 148.65 676.85 Q 148.65 681.69 146.45 685.63 Q 144.25 689.56 140.44 691.83 Q 136.62 694.09 131.91 694.09 Q 127.88 694.09 124.53 692.38 Q 121.19 690.68 119.02 687.70 V 705.87 Q 119.02 706.92 118.33 707.61 Q 117.65 708.29 116.60 708.29 Q 115.54 708.29 114.89 707.61 Q 114.24 706.92 114.24 705.87 V 691.98 Q 114.18 691.80 114.18 691.42 V 676.85 Q 114.18 672.02 116.44 668.05 Q 118.71 664.08 122.64 661.82 Q 126.58 659.56 131.42 659.56 Q 136.25 659.56 140.19 661.82 Q 144.13 664.08 146.39 668.05 Q 148.65 672.02 148.65 676.85 Z M 144.00 676.85 Q 144.00 673.20 142.36 670.25 Q 140.72 667.31 137.83 665.60 Q 134.95 663.90 131.42 663.90 Q 127.88 663.90 125.03 665.60 Q 122.18 667.31 120.54 670.25 Q 118.89 673.20 118.89 676.85 Q 118.89 677.91 118.95 678.40 Q 119.02 678.53 119.02 678.71 Q 119.64 683.55 123.08 686.65 Q 126.52 689.75 131.42 689.75 Q 134.95 689.75 137.83 688.08 Q 140.72 686.40 142.36 683.46 Q 144.00 680.51 144.00 676.85 Z M 183.97 662.10 Q 183.97 662.47 183.91 662.66 Q 183.66 663.52 183.13 663.83 Q 182.61 664.14 181.68 664.14 Q 181.12 664.14 179.75 664.02 Q 179.26 663.96 178.27 663.96 Q 173.62 663.96 170.67 666.44 Q 167.73 668.92 167.73 672.89 V 691.42 Q 167.73 692.54 167.11 693.16 Q 166.49 693.78 165.37 693.78 Q 164.25 693.78 163.63 693.16 Q 163.01 692.54 163.01 691.42 V 662.22 Q 163.01 661.11 163.63 660.49 Q 164.25 659.87 165.37 659.87 Q 166.49 659.87 167.11 660.49 Q 167.73 661.11 167.73 662.22 V 664.95 Q 169.52 662.35 172.31 660.92 Q 175.10 659.49 178.33 659.49 Q 180.93 659.49 182.45 660.18 Q 183.97 660.86 183.97 662.10 Z M 194.61 676.85 Q 194.61 671.96 196.84 667.99 Q 199.08 664.02 203.01 661.79 Q 206.95 659.56 211.85 659.56 Q 216.75 659.56 220.65 661.79 Q 224.56 664.02 226.82 667.99 Q 229.08 671.96 229.08 676.85 Q 229.08 681.75 226.85 685.69 Q 224.62 689.63 220.68 691.86 Q 216.75 694.09 211.85 694.09 Q 206.95 694.09 203.01 691.86 Q 199.08 689.63 196.84 685.69 Q 194.61 681.75 194.61 676.85 Z M 224.37 676.85 Q 224.37 673.13 222.76 670.19 Q 221.15 667.24 218.30 665.57 Q 215.44 663.90 211.85 663.90 Q 208.31 663.90 205.43 665.57 Q 202.55 667.24 200.91 670.19 Q 199.26 673.13 199.26 676.85 Q 199.26 680.51 200.91 683.46 Q 202.55 686.40 205.43 688.08 Q 208.31 689.75 211.85 689.75 Q 215.44 689.75 218.30 688.08 Q 221.15 686.40 222.76 683.46 Q 224.37 680.51 224.37 676.85 Z M 231.98 705.87 Q 231.98 704.82 232.66 704.13 Q 233.34 703.45 234.39 703.45 Q 238.67 703.45 241.40 700.72 Q 244.13 698.00 244.13 693.78 V 662.28 Q 244.13 661.23 244.78 660.55 Q 245.43 659.87 246.48 659.87 Q 247.54 659.87 248.22 660.55 Q 248.90 661.23 248.90 662.28 V 693.78 Q 248.90 698.00 247.04 701.28 Q 245.18 704.57 241.90 706.43 Q 238.61 708.29 234.39 708.29 Q 233.34 708.29 232.66 707.61 Q 231.98 706.92 231.98 705.87 Z M 243.07 650.01 Q 243.07 648.52 244.07 647.59 Q 245.06 646.66 246.48 646.66 Q 247.85 646.66 248.84 647.59 Q 249.83 648.52 249.83 650.01 Q 249.83 651.43 248.84 652.43 Q 247.85 653.42 246.42 653.42 Q 245.00 653.42 244.04 652.43 Q 243.07 651.43 243.07 650.01 Z M 296.06 676.23 Q 296.06 677.23 295.44 677.82 Q 294.82 678.40 293.83 678.40 H 268.78 Q 269.28 683.49 272.75 686.65 Q 276.22 689.81 281.43 689.81 Q 283.66 689.81 285.92 689.04 Q 288.19 688.26 289.55 687.08 Q 290.36 686.46 291.23 686.46 Q 291.91 686.46 292.59 686.96 Q 293.40 687.70 293.40 688.63 Q 293.40 689.44 292.71 690.06 Q 290.67 691.80 287.51 692.94 Q 284.34 694.09 281.43 694.09 Q 276.47 694.09 272.56 691.89 Q 268.66 689.69 266.46 685.75 Q 264.26 681.81 264.26 676.85 Q 264.26 671.83 266.33 667.89 Q 268.41 663.96 272.10 661.76 Q 275.79 659.56 280.50 659.56 Q 285.09 659.56 288.62 661.69 Q 292.16 663.83 294.11 667.62 Q 296.06 671.40 296.06 676.23 Z M 268.91 674.44 H 291.60 Q 291.10 669.66 288.13 666.75 Q 285.15 663.83 280.50 663.83 Q 275.79 663.83 272.69 666.75 Q 269.59 669.66 268.91 674.44 Z M 307.32 676.85 Q 307.32 671.89 309.43 667.96 Q 311.54 664.02 315.26 661.79 Q 318.98 659.56 323.63 659.56 Q 331.38 659.56 336.22 665.51 Q 336.71 666.07 336.71 666.81 Q 336.71 667.80 335.66 668.55 Q 335.10 668.92 334.48 668.92 Q 333.55 668.92 332.68 667.99 Q 330.82 665.94 328.59 664.92 Q 326.36 663.90 323.63 663.90 Q 320.22 663.90 317.55 665.54 Q 314.89 667.18 313.43 670.16 Q 311.97 673.13 311.97 676.85 Q 311.97 680.51 313.52 683.46 Q 315.07 686.40 317.86 688.08 Q 320.65 689.75 324.25 689.75 Q 329.21 689.75 332.25 687.08 Q 333.05 686.40 333.92 686.40 Q 334.67 686.40 335.29 686.90 Q 336.15 687.64 336.15 688.57 Q 336.15 689.38 335.53 689.94 Q 331.07 694.09 324.25 694.09 Q 319.41 694.09 315.57 691.83 Q 311.73 689.56 309.53 685.63 Q 307.32 681.69 307.32 676.85 Z M 368.25 691.42 Q 368.25 692.42 367.50 693.10 Q 366.76 693.78 365.64 693.78 H 364.34 Q 361.06 693.78 358.45 692.20 Q 355.85 690.62 354.39 687.92 Q 352.93 685.22 352.93 681.81 V 665.26 H 348.90 Q 347.91 665.26 347.32 664.67 Q 346.73 664.08 346.73 663.21 Q 346.73 662.28 347.32 661.69 Q 347.91 661.11 348.90 661.11 H 352.93 V 651.50 Q 352.93 650.44 353.59 649.76 Q 354.24 649.08 355.29 649.08 Q 356.34 649.08 357.03 649.76 Q 357.71 650.44 357.71 651.50 V 661.11 H 364.71 Q 365.71 661.11 366.29 661.69 Q 366.88 662.28 366.88 663.21 Q 366.88 664.08 366.29 664.67 Q 365.71 665.26 364.71 665.26 H 357.71 V 681.81 Q 357.71 684.98 359.57 686.99 Q 361.43 689.01 364.34 689.01 H 366.02 Q 367.01 689.01 367.63 689.69 Q 368.25 690.37 368.25 691.42 Z M 455.16 673.57 V 691.42 Q 455.16 692.48 454.51 693.13 Q 453.86 693.78 452.80 693.78 Q 451.75 693.78 451.07 693.13 Q 450.39 692.48 450.39 691.42 V 673.57 Q 450.39 669.17 448.12 666.59 Q 445.86 664.02 442.20 664.02 Q 438.29 664.02 435.88 666.62 Q 433.46 669.23 433.52 673.44 V 673.57 V 691.42 Q 433.52 692.48 432.87 693.13 Q 432.22 693.78 431.16 693.78 Q 430.11 693.78 429.43 693.13 Q 428.75 692.48 428.75 691.42 V 673.57 Q 428.75 669.17 426.48 666.59 Q 424.22 664.02 420.56 664.02 Q 416.72 664.02 414.24 666.56 Q 411.76 669.10 411.76 673.07 V 691.42 Q 411.76 692.48 411.11 693.13 Q 410.46 693.78 409.40 693.78 Q 408.35 693.78 407.67 693.13 Q 406.98 692.48 406.98 691.42 V 662.28 Q 406.98 661.23 407.67 660.55 Q 408.35 659.87 409.40 659.87 Q 410.46 659.87 411.11 660.55 Q 411.76 661.23 411.76 662.28 V 663.65 Q 413.49 661.66 415.88 660.58 Q 418.27 659.49 421.06 659.49 Q 424.47 659.49 427.20 661.04 Q 429.92 662.59 431.54 665.38 Q 433.34 662.59 436.22 661.04 Q 439.10 659.49 442.70 659.49 Q 446.35 659.49 449.18 661.23 Q 452.00 662.97 453.58 666.16 Q 455.16 669.35 455.16 673.57 Z M 500.71 676.23 Q 500.71 677.23 500.09 677.82 Q 499.47 678.40 498.48 678.40 H 473.43 Q 473.92 683.49 477.40 686.65 Q 480.87 689.81 486.08 689.81 Q 488.31 689.81 490.57 689.04 Q 492.83 688.26 494.20 687.08 Q 495.00 686.46 495.87 686.46 Q 496.55 686.46 497.23 686.96 Q 498.04 687.70 498.04 688.63 Q 498.04 689.44 497.36 690.06 Q 495.31 691.80 492.15 692.94 Q 488.99 694.09 486.08 694.09 Q 481.11 694.09 477.21 691.89 Q 473.30 689.69 471.10 685.75 Q 468.90 681.81 468.90 676.85 Q 468.90 671.83 470.98 667.89 Q 473.05 663.96 476.74 661.76 Q 480.43 659.56 485.15 659.56 Q 489.73 659.56 493.27 661.69 Q 496.80 663.83 498.75 667.62 Q 500.71 671.40 500.71 676.23 Z M 473.55 674.44 H 496.24 Q 495.75 669.66 492.77 666.75 Q 489.79 663.83 485.15 663.83 Q 480.43 663.83 477.33 666.75 Q 474.23 669.66 473.55 674.44 Z M 561.94 673.57 V 691.42 Q 561.94 692.48 561.29 693.13 Q 560.64 693.78 559.59 693.78 Q 558.53 693.78 557.85 693.13 Q 557.17 692.48 557.17 691.42 V 673.57 Q 557.17 669.17 554.90 666.59 Q 552.64 664.02 548.98 664.02 Q 545.08 664.02 542.66 666.62 Q 540.24 669.23 540.30 673.44 V 673.57 V 691.42 Q 540.30 692.48 539.65 693.13 Q 539.00 693.78 537.95 693.78 Q 536.89 693.78 536.21 693.13 Q 535.53 692.48 535.53 691.42 V 673.57 Q 535.53 669.17 533.27 666.59 Q 531.00 664.02 527.35 664.02 Q 523.50 664.02 521.02 666.56 Q 518.54 669.10 518.54 673.07 V 691.42 Q 518.54 692.48 517.89 693.13 Q 517.24 693.78 516.18 693.78 Q 515.13 693.78 514.45 693.13 Q 513.77 692.48 513.77 691.42 V 662.28 Q 513.77 661.23 514.45 660.55 Q 515.13 659.87 516.18 659.87 Q 517.24 659.87 517.89 660.55 Q 518.54 661.23 518.54 662.28 V 663.65 Q 520.28 661.66 522.66 660.58 Q 525.05 659.49 527.84 659.49 Q 531.25 659.49 533.98 661.04 Q 536.71 662.59 538.32 665.38 Q 540.12 662.59 543.00 661.04 Q 545.88 659.49 549.48 659.49 Q 553.14 659.49 555.96 661.23 Q 558.78 662.97 560.36 666.16 Q 561.94 669.35 561.94 673.57 Z M 575.68 676.85 Q 575.68 671.96 577.91 667.99 Q 580.15 664.02 584.08 661.79 Q 588.02 659.56 592.92 659.56 Q 597.82 659.56 601.72 661.79 Q 605.63 664.02 607.89 667.99 Q 610.16 671.96 610.16 676.85 Q 610.16 681.75 607.92 685.69 Q 605.69 689.63 601.75 691.86 Q 597.82 694.09 592.92 694.09 Q 588.02 694.09 584.08 691.86 Q 580.15 689.63 577.91 685.69 Q 575.68 681.75 575.68 676.85 Z M 605.44 676.85 Q 605.44 673.13 603.83 670.19 Q 602.22 667.24 599.37 665.57 Q 596.51 663.90 592.92 663.90 Q 589.38 663.90 586.50 665.57 Q 583.62 667.24 581.98 670.19 Q 580.33 673.13 580.33 676.85 Q 580.33 680.51 581.98 683.46 Q 583.62 686.40 586.50 688.08 Q 589.38 689.75 592.92 689.75 Q 596.51 689.75 599.37 688.08 Q 602.22 686.40 603.83 683.46 Q 605.44 680.51 605.44 676.85 Z M 645.41 662.10 Q 645.41 662.47 645.35 662.66 Q 645.10 663.52 644.57 663.83 Q 644.05 664.14 643.12 664.14 Q 642.56 664.14 641.20 664.02 Q 640.70 663.96 639.71 663.96 Q 635.06 663.96 632.11 666.44 Q 629.17 668.92 629.17 672.89 V 691.42 Q 629.17 692.54 628.55 693.16 Q 627.93 693.78 626.81 693.78 Q 625.70 693.78 625.08 693.16 Q 624.46 692.54 624.46 691.42 V 662.22 Q 624.46 661.11 625.08 660.49 Q 625.70 659.87 626.81 659.87 Q 627.93 659.87 628.55 660.49 Q 629.17 661.11 629.17 662.22 V 664.95 Q 630.97 662.35 633.75 660.92 Q 636.54 659.49 639.77 659.49 Q 642.37 659.49 643.89 660.18 Q 645.41 660.86 645.41 662.10 Z M 685.81 661.85 Q 685.81 662.41 685.56 662.97 L 665.48 707.11 Q 664.92 708.54 663.68 708.54 Q 663.06 708.54 662.56 708.29 Q 661.14 707.73 661.14 706.43 Q 661.14 705.87 661.38 705.31 L 667.52 691.73 V 691.67 L 653.70 663.03 Q 653.45 662.53 653.45 661.91 Q 653.45 660.61 654.81 660.05 Q 655.31 659.80 655.93 659.80 Q 657.23 659.80 657.79 661.11 L 669.88 686.59 L 681.41 661.17 Q 682.03 659.80 683.27 659.80 Q 683.83 659.80 684.39 660.05 Q 685.81 660.61 685.81 661.85 Z"/>
  </g>
</svg>
